<?xml version="1.0" encoding="UTF-8"?>
<svg id="Layer_2" data-name="Layer 2" xmlns="http://www.w3.org/2000/svg" viewBox="0 0 600 1200">
  <defs>
    <style>
      .cls-1 {
        fill: none;
      }

      .cls-2 {
        fill: #fff;
      }
    </style>
  </defs>
  <g id="Logo_Copy" data-name="Logo &amp;amp; Copy">
    <rect id="background" class="cls-1" width="600" height="1200"/>
    <g>
      <path class="cls-2" d="M156.51,1074.47v-18.48h6.43v18.08c0,3.19,1.92,4.99,4.83,4.99s4.83-1.8,4.83-4.99v-18.08h6.47v18.48c0,6.51-4.43,10.18-11.3,10.18s-11.26-3.67-11.26-10.18Z"/>
      <path class="cls-2" d="M205.77,1066.08c0,5.87-4.23,10.1-10.02,10.1h-5.43v7.74h-6.47v-27.94h11.9c5.83,0,10.02,4.23,10.02,10.1ZM199.22,1066.08c0-2.79-1.88-4.83-4.47-4.83h-4.43v9.66h4.43c2.59,0,4.47-2.04,4.47-4.83Z"/>
      <path class="cls-2" d="M208.8,1055.98h10.54c8.98,0,14.25,6.43,14.25,13.97s-5.23,13.97-14.25,13.97h-10.54v-27.94ZM218.74,1078.5c5.51,0,8.18-4.11,8.18-8.54s-2.67-8.54-8.18-8.54h-3.47v17.08h3.47Z"/>
      <path class="cls-2" d="M252.63,1080.53h-9.9l-.96,3.39h-6.83l9.46-27.94h6.51l9.5,27.94h-6.83l-.96-3.39ZM251.19,1075.46l-3.51-12.41-3.51,12.41h7.03Z"/>
      <path class="cls-2" d="M268.68,1061.73h-7.66v-5.75h21.79v5.75h-7.7v22.19h-6.43v-22.19Z"/>
      <path class="cls-2" d="M285.72,1055.98h17.08v5.19h-10.62v6.35h10.62v5.07h-10.62v6.15h10.62v5.19h-17.08v-27.94Z"/>
      <path class="cls-2" d="M162.3,1101.65h-7.66v-5.75h21.79v5.75h-7.7v22.19h-6.43v-22.19Z"/>
      <path class="cls-2" d="M179.34,1095.9h6.47v11.3h9.66v-11.3h6.47v27.94h-6.47v-11.1h-9.66v11.1h-6.47v-27.94Z"/>
      <path class="cls-2" d="M207.36,1095.9h17.08v5.19h-10.62v6.35h10.62v5.07h-10.62v6.15h10.62v5.19h-17.08v-27.94Z"/>
      <path class="cls-2" d="M239.26,1095.9h6.47v11.3h9.66v-11.3h6.47v27.94h-6.47v-11.1h-9.66v11.1h-6.47v-27.94Z"/>
      <path class="cls-2" d="M266.64,1114.38v-18.48h6.43v18.08c0,3.19,1.92,4.99,4.83,4.99s4.83-1.8,4.83-4.99v-18.08h6.47v18.48c0,6.51-4.43,10.18-11.3,10.18s-11.26-3.67-11.26-10.18Z"/>
      <path class="cls-2" d="M293.99,1095.9h7.5l7.42,19.84,7.42-19.84h7.34v27.94h-6.19v-18.12l-6.19,18.12h-4.79l-6.35-18.24v18.24h-6.19v-27.94Z"/>
      <path class="cls-2" d="M344.48,1120.45h-9.9l-.96,3.39h-6.83l9.46-27.94h6.51l9.5,27.94h-6.83l-.96-3.39ZM343.05,1115.38l-3.51-12.42-3.51,12.42h7.03Z"/>
      <path class="cls-2" d="M355.38,1095.9h6.63l9.7,18.08v-18.08h6.19v27.94h-6.63l-9.7-18.08v18.08h-6.19v-27.94Z"/>
    </g>
  </g>
</svg>