<?xml version="1.0" encoding="UTF-8"?>
<svg id="Layer_2" data-name="Layer 2" xmlns="http://www.w3.org/2000/svg" viewBox="0 0 600 1200">
  <defs>
    <style>
      .cls-1 {
        fill: none;
      }

      .cls-2 {
        fill: #1b2e5a;
      }
    </style>
  </defs>
  <g id="Logo_Copy" data-name="Logo &amp;amp; Copy">
    <rect id="background" class="cls-1" width="600" height="1200"/>
    <g>
      <path class="cls-2" d="M101.76,513.51c0-14.41,6.56-23.01,19.36-23.01,11.44,0,17.63,6.37,18.19,17.82h-12.8c-.31-4.7-1.98-6.93-5.51-6.93-4.45,0-6.37,4.02-6.37,12.12s1.92,12.12,6.37,12.12c3.53,0,5.2-2.23,5.51-6.93h12.8c-.56,11.44-6.74,17.82-18.19,17.82-12.8,0-19.36-8.6-19.36-23.01Z"/>
      <path class="cls-2" d="M141.04,513.51c0-14.72,7.18-23.01,19.79-23.01s19.79,8.29,19.79,23.01-7.18,23.01-19.79,23.01-19.79-8.29-19.79-23.01ZM167.77,513.51c0-7.86-2.29-11.88-6.93-11.88s-6.93,4.02-6.93,11.88,2.29,11.88,6.93,11.88,6.93-4.02,6.93-11.88Z"/>
      <path class="cls-2" d="M183.79,520.38v-28.52h12.43v28.33c0,3.53,1.61,5.57,4.21,5.57s4.21-2.04,4.21-5.57v-28.33h12.43v28.52c0,10.27-6.06,15.96-16.64,15.96s-16.64-5.75-16.64-15.96Z"/>
      <path class="cls-2" d="M237.12,524.46h-2.54v10.7h-12.37v-43.3h15.84c10.45,0,16.83,6.25,16.83,16.27,0,5.63-2.23,10.27-6.12,13.11l6.31,13.92h-13.3l-4.64-10.7ZM234.58,515.68h2.04c3.71,0,5.69-2.72,5.69-7.55s-2.04-7.49-5.63-7.49h-2.1v15.03Z"/>
      <path class="cls-2" d="M256.73,521.43h12.06c0,3.71,1.55,5.69,4.14,5.69,2.04,0,3.34-1.36,3.34-3.46s-1.18-3.4-3.84-4.64l-5.81-2.54c-6.31-2.78-9.46-6.8-9.46-13.05,0-7.92,5.75-12.93,15.16-12.93s14.91,4.82,14.91,13.67h-11.69c-.06-3.34-1.36-4.95-3.59-4.95-1.98,0-3.15,1.24-3.15,3.22,0,2.17,1.42,3.22,4.27,4.64l6.99,3.22c5.63,2.72,8.1,6.68,8.1,12.5,0,8.6-6.06,13.73-15.4,13.73-10.08,0-16.02-5.32-16.02-15.09Z"/>
      <path class="cls-2" d="M291.62,491.86h24.12v9.34h-11.75v7.86h11.75v9.03h-11.75v7.73h11.75v9.34h-24.12v-43.3Z"/>
      <path class="cls-2" d="M318.77,521.43h12.06c0,3.71,1.55,5.69,4.14,5.69,2.04,0,3.34-1.36,3.34-3.46s-1.18-3.4-3.84-4.64l-5.81-2.54c-6.31-2.78-9.46-6.8-9.46-13.05,0-7.92,5.75-12.93,15.16-12.93s14.91,4.82,14.91,13.67h-11.69c-.06-3.34-1.36-4.95-3.59-4.95-1.98,0-3.15,1.24-3.15,3.22,0,2.17,1.42,3.22,4.27,4.64l6.99,3.22c5.63,2.72,8.1,6.68,8.1,12.5,0,8.6-6.06,13.73-15.4,13.73-10.08,0-16.02-5.32-16.02-15.09Z"/>
      <path class="cls-2" d="M370.8,502.56h-7.98v-10.7h28.33v10.7h-7.98v32.6h-12.37v-32.6Z"/>
      <path class="cls-2" d="M394.25,491.86h12.37v16.64h8.23v-16.64h12.37v43.3h-12.37v-16.33h-8.23v16.33h-12.37v-43.3Z"/>
      <path class="cls-2" d="M455.12,529.47h-10.89l-1.24,5.69h-12.62l12.31-43.3h13.92l12.37,43.3h-12.62l-1.24-5.69ZM453.26,520.62l-3.59-16.89-3.59,16.89h7.18Z"/>
      <path class="cls-2" d="M477.63,502.56h-7.98v-10.7h28.33v10.7h-7.98v32.6h-12.37v-32.6Z"/>
      <path class="cls-2" d="M65.7,585.08c0,7.61-5.26,11.94-14.48,11.94h-17.63v-43.3h17.2c9.09,0,14.29,4.14,14.29,11.26,0,5.57-3.28,9.03-8.29,10.02,5.2.62,8.91,4.27,8.91,10.08ZM45.96,561.39v9.84h2.47c2.85,0,4.52-1.86,4.52-4.95s-1.55-4.89-4.39-4.89h-2.6ZM53.32,583.6c0-3.03-1.67-4.95-4.39-4.95h-2.97v10.02h2.6c3.15,0,4.76-1.79,4.76-5.07Z"/>
      <path class="cls-2" d="M69.35,582.24v-28.52h12.43v28.33c0,3.53,1.61,5.57,4.21,5.57s4.21-2.04,4.21-5.57v-28.33h12.43v28.52c0,10.27-6.06,15.96-16.64,15.96s-16.64-5.75-16.64-15.96Z"/>
      <path class="cls-2" d="M107.76,553.72h12.37v43.3h-12.37v-43.3Z"/>
      <path class="cls-2" d="M125.7,553.72h12.37v32.6h10.58v10.7h-22.95v-43.3Z"/>
      <path class="cls-2" d="M153.23,553.72h15.53c12.19,0,19.55,8.47,19.55,21.65s-7.42,21.65-19.79,21.65h-15.28v-43.3ZM168.26,586.88c4.52,0,7.36-3.53,7.36-11.51s-2.85-11.51-7.36-11.51h-2.66v23.01h2.66Z"/>
      <path class="cls-2" d="M209.03,564.42h-7.98v-10.7h28.33v10.7h-7.98v32.6h-12.37v-32.6Z"/>
      <path class="cls-2" d="M232.48,553.72h12.37v16.64h8.23v-16.64h12.37v43.3h-12.37v-16.33h-8.23v16.33h-12.37v-43.3Z"/>
      <path class="cls-2" d="M271.02,553.72h24.12v9.34h-11.75v7.86h11.75v9.03h-11.75v7.73h11.75v9.34h-24.12v-43.3Z"/>
      <path class="cls-2" d="M317.41,564.42h-7.98v-10.7h28.33v10.7h-7.98v32.6h-12.37v-32.6Z"/>
      <path class="cls-2" d="M340.86,553.72h12.37v16.64h8.23v-16.64h12.37v43.3h-12.37v-16.33h-8.23v16.33h-12.37v-43.3Z"/>
      <path class="cls-2" d="M379.4,553.72h12.37v43.3h-12.37v-43.3Z"/>
      <path class="cls-2" d="M397.34,553.72h11.2l10.52,23.38v-23.38h11.32v43.3h-11.2l-10.45-22.89v22.89h-11.38v-43.3Z"/>
      <path class="cls-2" d="M457.16,597.02l-8.85-20.1v20.1h-12.37v-43.3h12.37v20.1l8.91-20.1h13.73l-10.39,21.22,10.7,22.08h-14.1Z"/>
      <path class="cls-2" d="M474.35,553.72h12.37v43.3h-12.37v-43.3Z"/>
      <path class="cls-2" d="M492.29,553.72h11.2l10.52,23.38v-23.38h11.32v43.3h-11.2l-10.45-22.89v22.89h-11.38v-43.3Z"/>
      <path class="cls-2" d="M567.89,581.93h-2.17c-.56,10.76-7.05,16.45-17.44,16.45-12.56,0-19.36-8.66-19.36-23.2s6.93-22.83,19.42-22.83c11.07,0,17.26,5.44,17.63,15.09h-12.5c-.25-3.46-1.98-5.01-5.13-5.01-4.58,0-6.56,4.14-6.56,12.31,0,9.34,2.1,13.42,6.8,13.42,3.22,0,5.32-2.1,5.57-6.25h-5.63v-8.54h19.36v8.54Z"/>
      <path class="cls-2" d="M82.89,615.59h11.2l10.52,23.38v-23.38h11.32v43.3h-11.2l-10.45-22.89v22.89h-11.38v-43.3Z"/>
      <path class="cls-2" d="M119.52,637.24c0-14.72,7.18-23.01,19.79-23.01s19.79,8.29,19.79,23.01-7.18,23.01-19.79,23.01-19.79-8.29-19.79-23.01ZM146.24,637.24c0-7.86-2.29-11.88-6.93-11.88s-6.93,4.02-6.93,11.88,2.29,11.88,6.93,11.88,6.93-4.02,6.93-11.88Z"/>
      <path class="cls-2" d="M179.83,626.29h-7.98v-10.7h28.33v10.7h-7.98v32.6h-12.37v-32.6Z"/>
      <path class="cls-2" d="M201.3,637.24c0-14.72,7.18-23.01,19.79-23.01s19.79,8.29,19.79,23.01-7.18,23.01-19.79,23.01-19.79-8.29-19.79-23.01ZM228.02,637.24c0-7.86-2.29-11.88-6.93-11.88s-6.93,4.02-6.93,11.88,2.29,11.88,6.93,11.88,6.93-4.02,6.93-11.88Z"/>
      <path class="cls-2" d="M242.5,637.24c0-14.72,7.18-23.01,19.79-23.01s19.79,8.29,19.79,23.01-7.18,23.01-19.79,23.01-19.79-8.29-19.79-23.01ZM269.22,637.24c0-7.86-2.29-11.88-6.93-11.88s-6.93,4.02-6.93,11.88,2.29,11.88,6.93,11.88,6.93-4.02,6.93-11.88Z"/>
      <path class="cls-2" d="M285.68,615.59h12.37v32.6h10.58v10.7h-22.95v-43.3Z"/>
      <path class="cls-2" d="M322.85,637.24c0-14.41,6.56-23.01,19.36-23.01,11.44,0,17.63,6.37,18.19,17.82h-12.8c-.31-4.7-1.98-6.93-5.51-6.93-4.45,0-6.37,4.02-6.37,12.12s1.92,12.12,6.37,12.12c3.53,0,5.2-2.23,5.51-6.93h12.8c-.56,11.44-6.74,17.82-18.19,17.82-12.8,0-19.36-8.6-19.36-23.01Z"/>
      <path class="cls-2" d="M386.45,653.2h-10.89l-1.24,5.69h-12.62l12.31-43.3h13.92l12.37,43.3h-12.62l-1.24-5.69ZM384.59,644.35l-3.59-16.89-3.59,16.89h7.18Z"/>
      <path class="cls-2" d="M403.46,615.59h11.2l10.52,23.38v-23.38h11.32v43.3h-11.2l-10.45-22.89v22.89h-11.38v-43.3Z"/>
      <path class="cls-2" d="M453.69,615.59h15.53c12.19,0,19.55,8.47,19.55,21.65s-7.42,21.65-19.79,21.65h-15.28v-43.3ZM468.72,648.74c4.52,0,7.36-3.53,7.36-11.51s-2.85-11.51-7.36-11.51h-2.66v23.01h2.66Z"/>
      <path class="cls-2" d="M490.38,637.24c0-14.72,7.18-23.01,19.79-23.01s19.79,8.29,19.79,23.01-7.17,23.01-19.79,23.01-19.79-8.29-19.79-23.01ZM517.1,637.24c0-7.86-2.29-11.88-6.93-11.88s-6.93,4.02-6.93,11.88,2.29,11.88,6.93,11.88,6.93-4.02,6.93-11.88Z"/>
      <path class="cls-2" d="M177.98,677.45h23.26v10.15h-10.89v9.16h10.89v10.52h-10.89v13.49h-12.37v-43.3Z"/>
      <path class="cls-2" d="M203.96,699.1c0-14.72,7.18-23.01,19.79-23.01s19.79,8.29,19.79,23.01-7.18,23.01-19.79,23.01-19.79-8.29-19.79-23.01ZM230.68,699.1c0-7.86-2.29-11.88-6.93-11.88s-6.93,4.02-6.93,11.88,2.29,11.88,6.93,11.88,6.93-4.02,6.93-11.88Z"/>
      <path class="cls-2" d="M262.05,710.05h-2.54v10.7h-12.37v-43.3h15.84c10.45,0,16.83,6.25,16.83,16.27,0,5.63-2.23,10.27-6.12,13.11l6.31,13.92h-13.3l-4.64-10.7ZM259.51,701.26h2.04c3.71,0,5.69-2.72,5.69-7.55s-2.04-7.49-5.63-7.49h-2.1v15.03Z"/>
      <path class="cls-2" d="M329.04,677.45l-17.63,43.3h-13.42l5.63-13.67-11.01-29.63h13.18l4.83,18.37,5.26-18.37h13.18Z"/>
      <path class="cls-2" d="M329.29,699.1c0-14.72,7.18-23.01,19.79-23.01s19.79,8.29,19.79,23.01-7.18,23.01-19.79,23.01-19.79-8.29-19.79-23.01ZM356.01,699.1c0-7.86-2.29-11.88-6.93-11.88s-6.93,4.02-6.93,11.88,2.29,11.88,6.93,11.88,6.93-4.02,6.93-11.88Z"/>
      <path class="cls-2" d="M372.04,705.97v-28.52h12.43v28.33c0,3.53,1.61,5.57,4.21,5.57s4.21-2.04,4.21-5.57v-28.33h12.43v28.52c0,10.27-6.06,15.96-16.64,15.96s-16.64-5.75-16.64-15.96Z"/>
      <path class="cls-2" d="M408.97,714.69c0-3.65,2.97-6.74,6.93-6.74s6.87,3.09,6.87,6.74-2.97,6.8-6.87,6.8-6.93-3.09-6.93-6.8Z"/>
    </g>
  </g>
</svg>