<?xml version="1.0" encoding="UTF-8"?>
<svg id="Layer_2" data-name="Layer 2" xmlns="http://www.w3.org/2000/svg" viewBox="0 0 1456 180">
  <defs>
    <style>
      .cls-1 {
        fill: none;
      }

      .cls-2 {
        fill: #fff;
      }
    </style>
  </defs>
  <g id="Logo_Copy" data-name="Logo &amp;amp; Copy">
    <g id="Background">
      <rect class="cls-1" width="1456" height="180"/>
    </g>
    <g>
      <path class="cls-2" d="M1005.55,45.48h5.7v9.96h8.52v-9.96h5.7v24.64h-5.7v-9.79h-8.52v9.79h-5.7v-24.64Z"/>
      <path class="cls-2" d="M1029.45,63.64v-10.49h5.46v9.29c0,2.32.77,3.59,2.82,3.59,2.29,0,3.27-1.48,3.27-3.77v-9.12h5.35v16.97h-5.35v-2.43c-.95,1.79-2.71,2.89-5.28,2.89-4.08,0-6.27-2.53-6.27-6.93Z"/>
      <path class="cls-2" d="M1050.08,53.15h5.39v2.46c.99-1.9,2.92-2.92,5.49-2.92,4.12,0,6.2,2.32,6.2,6.93v10.49h-5.42v-8.73c0-2.85-.81-4.15-2.99-4.15s-3.27,1.41-3.27,4.01v8.87h-5.39v-16.97Z"/>
      <path class="cls-2" d="M1088.48,45.48v24.64h-5.35v-2.39c-.92,1.69-3.03,2.85-5.39,2.85-5.07,0-7.99-3.84-7.99-8.94s3.13-8.94,8.06-8.94c2.46,0,4.4,1.16,5.32,2.89v-1.44h-.04v-8.66h5.39ZM1083.34,61.64c0-2.43-1.37-4.44-4.05-4.44-2.5,0-4.05,1.87-4.05,4.44s1.55,4.47,4.05,4.47c2.68,0,4.05-2.01,4.05-4.47Z"/>
      <path class="cls-2" d="M1092.22,53.15h5.39v3.56c.6-2.53,2.61-3.84,4.68-3.84.63,0,.99.04,1.41.14v5c-.63-.07-.95-.11-1.62-.11-2.64,0-4.47,1.58-4.47,5.67v6.55h-5.39v-16.97Z"/>
      <path class="cls-2" d="M1122.79,63.11h-12.53c.11,2.22,1.58,3.49,3.98,3.49,1.65,0,2.71-.53,3.17-1.58h5.28c-.53,3.34-3.94,5.63-8.45,5.63-5.77,0-9.33-3.34-9.33-9.01s3.63-8.98,9.15-8.98,8.87,3.31,8.87,8.1c0,.92-.04,1.37-.14,2.36ZM1117.61,59.77c-.04-2.25-1.3-3.52-3.59-3.52s-3.73,1.44-3.77,3.52h7.36Z"/>
      <path class="cls-2" d="M1143.33,45.48v24.64h-5.35v-2.39c-.92,1.69-3.03,2.85-5.39,2.85-5.07,0-7.99-3.84-7.99-8.94s3.13-8.94,8.06-8.94c2.46,0,4.4,1.16,5.32,2.89v-1.44h-.04v-8.66h5.39ZM1138.19,61.64c0-2.43-1.37-4.44-4.05-4.44-2.5,0-4.05,1.87-4.05,4.44s1.55,4.47,4.05,4.47c2.68,0,4.05-2.01,4.05-4.47Z"/>
      <path class="cls-2" d="M1146.01,65.01h5.35c0,1.16,1.13,2.01,2.78,2.01,1.16,0,1.97-.6,1.97-1.58,0-.67-.32-1.23-1.23-1.44l-4.15-1.06c-2.82-.7-4.26-2.46-4.26-4.89,0-3.17,2.78-5.39,7.25-5.39,4.96,0,7.57,2.08,7.57,5.28h-5.32c0-1.2-.88-1.87-2.32-1.87-1.16,0-1.94.56-1.94,1.41,0,.77.53,1.27,1.44,1.51l4.01,1.09c2.61.7,4.29,2.29,4.29,4.72,0,3.48-2.78,5.84-7.43,5.84-4.96,0-8.03-2.43-8.03-5.63Z"/>
      <path class="cls-2" d="M1172.02,61.64c0-5.17,3.59-8.98,9.43-8.98s9.4,3.8,9.4,8.98-3.59,9.01-9.4,9.01-9.43-3.84-9.43-9.01ZM1185.5,61.64c0-2.57-1.51-4.44-4.05-4.44s-4.05,1.87-4.05,4.44,1.48,4.44,4.05,4.44,4.05-1.87,4.05-4.44Z"/>
      <path class="cls-2" d="M1200.32,51.43v1.73h3.94v4.26h-3.94v12.71h-5.39v-12.71h-3.03v-4.26h3.03v-1.65c0-5.21,3.7-6.34,6.23-6.34,1.44,0,2.43.18,3.1.39v3.84c-.56-.04-.99-.11-1.48-.11-1.16,0-2.46.28-2.46,2.15Z"/>
      <path class="cls-2" d="M1214.15,61.64c0-5.35,3.49-8.98,9.08-8.98,5.07,0,8.38,2.71,8.8,6.93h-5.39c-.39-1.58-1.41-2.39-3.38-2.39-2.32,0-3.73,1.62-3.73,4.44s1.41,4.44,3.73,4.44c1.97,0,2.99-.77,3.38-2.25h5.39c-.42,4.12-3.73,6.83-8.8,6.83-5.6,0-9.08-3.66-9.08-9.01Z"/>
      <path class="cls-2" d="M1233.53,61.64c0-5.17,3.59-8.98,9.43-8.98s9.4,3.8,9.4,8.98-3.59,9.01-9.4,9.01-9.43-3.84-9.43-9.01ZM1247.01,61.64c0-2.57-1.51-4.44-4.05-4.44s-4.05,1.87-4.05,4.44,1.48,4.44,4.05,4.44,4.05-1.87,4.05-4.44Z"/>
      <path class="cls-2" d="M1254.82,63.64v-10.49h5.46v9.29c0,2.32.77,3.59,2.82,3.59,2.29,0,3.27-1.48,3.27-3.77v-9.12h5.35v16.97h-5.35v-2.43c-.95,1.79-2.71,2.89-5.28,2.89-4.08,0-6.27-2.53-6.27-6.93Z"/>
      <path class="cls-2" d="M1275.46,53.15h5.39v3.56c.6-2.53,2.61-3.84,4.68-3.84.63,0,.99.04,1.41.14v5c-.63-.07-.95-.11-1.62-.11-2.64,0-4.47,1.58-4.47,5.67v6.55h-5.39v-16.97Z"/>
      <path class="cls-2" d="M1288.17,65.01h5.35c0,1.16,1.13,2.01,2.78,2.01,1.16,0,1.97-.6,1.97-1.58,0-.67-.32-1.23-1.23-1.44l-4.15-1.06c-2.82-.7-4.26-2.46-4.26-4.89,0-3.17,2.78-5.39,7.25-5.39,4.96,0,7.57,2.08,7.57,5.28h-5.32c0-1.2-.88-1.87-2.32-1.87-1.16,0-1.94.56-1.94,1.41,0,.77.53,1.27,1.44,1.51l4.01,1.09c2.61.7,4.29,2.29,4.29,4.72,0,3.48-2.78,5.84-7.43,5.84-4.96,0-8.03-2.43-8.03-5.63Z"/>
      <path class="cls-2" d="M1323.18,63.11h-12.53c.11,2.22,1.58,3.49,3.98,3.49,1.65,0,2.71-.53,3.17-1.58h5.28c-.53,3.34-3.94,5.63-8.45,5.63-5.77,0-9.33-3.34-9.33-9.01s3.63-8.98,9.15-8.98,8.87,3.31,8.87,8.1c0,.92-.04,1.37-.14,2.36ZM1318,59.77c-.04-2.25-1.3-3.52-3.59-3.52s-3.73,1.44-3.77,3.52h7.36Z"/>
      <path class="cls-2" d="M1324.83,65.01h5.35c0,1.16,1.13,2.01,2.78,2.01,1.16,0,1.97-.6,1.97-1.58,0-.67-.32-1.23-1.23-1.44l-4.15-1.06c-2.82-.7-4.26-2.46-4.26-4.89,0-3.17,2.78-5.39,7.25-5.39,4.96,0,7.57,2.08,7.57,5.28h-5.32c0-1.2-.88-1.87-2.32-1.87-1.16,0-1.94.56-1.94,1.41,0,.77.53,1.27,1.44,1.51l4.01,1.09c2.61.7,4.29,2.29,4.29,4.72,0,3.48-2.78,5.84-7.43,5.84-4.96,0-8.03-2.43-8.03-5.63Z"/>
      <path class="cls-2" d="M1001.9,85.43v1.73h3.94v4.26h-3.94v12.71h-5.39v-12.71h-3.03v-4.26h3.03v-1.65c0-5.21,3.7-6.34,6.23-6.34,1.44,0,2.43.18,3.1.39v3.84c-.56-.04-.99-.11-1.48-.11-1.16,0-2.46.28-2.46,2.15Z"/>
      <path class="cls-2" d="M1006.81,95.64c0-5.17,3.59-8.98,9.43-8.98s9.4,3.8,9.4,8.98-3.59,9.01-9.4,9.01-9.43-3.84-9.43-9.01ZM1020.29,95.64c0-2.57-1.51-4.44-4.05-4.44s-4.05,1.87-4.05,4.44,1.48,4.44,4.05,4.44,4.05-1.87,4.05-4.44Z"/>
      <path class="cls-2" d="M1028.25,87.15h5.39v3.56c.6-2.53,2.61-3.84,4.68-3.84.63,0,.99.04,1.41.14v5c-.63-.07-.95-.11-1.62-.11-2.64,0-4.47,1.58-4.47,5.67v6.55h-5.39v-16.97Z"/>
      <path class="cls-2" d="M1069.89,95.64c0,5.32-3.27,8.94-7.96,8.94-2.5,0-4.54-1.27-5.39-2.85v9.43h-5.39v-24.01h5.39v2.43c.88-1.62,2.99-2.89,5.53-2.89,4.65,0,7.82,3.59,7.82,8.94ZM1064.4,95.64c0-2.6-1.66-4.44-4.01-4.44s-4.08,1.79-4.08,4.44,1.69,4.47,4.08,4.47,4.01-1.83,4.01-4.47Z"/>
      <path class="cls-2" d="M1089.41,97.11h-12.53c.11,2.22,1.58,3.49,3.98,3.49,1.65,0,2.71-.53,3.17-1.58h5.28c-.53,3.34-3.94,5.63-8.45,5.63-5.77,0-9.33-3.34-9.33-9.01s3.63-8.98,9.15-8.98,8.87,3.31,8.87,8.1c0,.92-.04,1.37-.14,2.36ZM1084.23,93.77c-.04-2.25-1.3-3.52-3.59-3.52s-3.73,1.44-3.77,3.52h7.36Z"/>
      <path class="cls-2" d="M1091.1,95.64c0-5.17,3.59-8.98,9.43-8.98s9.4,3.8,9.4,8.98-3.59,9.01-9.4,9.01-9.43-3.84-9.43-9.01ZM1104.58,95.64c0-2.57-1.51-4.44-4.05-4.44s-4.05,1.87-4.05,4.44,1.48,4.44,4.05,4.44,4.05-1.87,4.05-4.44Z"/>
      <path class="cls-2" d="M1131.27,95.64c0,5.32-3.27,8.94-7.96,8.94-2.5,0-4.54-1.27-5.39-2.85v9.43h-5.39v-24.01h5.39v2.43c.88-1.62,2.99-2.89,5.53-2.89,4.65,0,7.82,3.59,7.82,8.94ZM1125.78,95.64c0-2.6-1.66-4.44-4.01-4.44s-4.08,1.79-4.08,4.44,1.69,4.47,4.08,4.47,4.01-1.83,4.01-4.47Z"/>
      <path class="cls-2" d="M1134.06,79.48h5.39v24.64h-5.39v-24.64Z"/>
      <path class="cls-2" d="M1159.99,97.11h-12.53c.11,2.22,1.58,3.49,3.98,3.49,1.65,0,2.71-.53,3.17-1.58h5.28c-.53,3.34-3.94,5.63-8.45,5.63-5.77,0-9.33-3.34-9.33-9.01s3.63-8.98,9.15-8.98,8.87,3.31,8.87,8.1c0,.92-.04,1.37-.14,2.36ZM1154.82,93.77c-.04-2.25-1.3-3.52-3.59-3.52s-3.73,1.44-3.77,3.52h7.36Z"/>
      <path class="cls-2" d="M1169.67,87.15h5.63l3.06,10.28,2.89-10.28h5.25l2.89,10.28,3.06-10.28h5.6l-6.09,16.97h-4.82l-3.27-10.31-3.24,10.31h-4.82l-6.12-16.97Z"/>
      <path class="cls-2" d="M1216.99,93.63v10.49h-5.42v-8.73c0-2.85-.81-4.15-2.99-4.15s-3.27,1.41-3.27,4.01v8.87h-5.39v-24.64h5.39v10.14c.99-1.9,2.92-2.92,5.49-2.92,4.12,0,6.2,2.32,6.2,6.93Z"/>
      <path class="cls-2" d="M1219.47,95.64c0-5.17,3.59-8.98,9.43-8.98s9.4,3.8,9.4,8.98-3.59,9.01-9.4,9.01-9.43-3.84-9.43-9.01ZM1232.95,95.64c0-2.57-1.51-4.44-4.05-4.44s-4.05,1.87-4.05,4.44,1.48,4.44,4.05,4.44,4.05-1.87,4.05-4.44Z"/>
      <path class="cls-2" d="M1249.95,87.15h5.39v3.56c.6-2.53,2.61-3.84,4.68-3.84.63,0,.99.04,1.41.14v5c-.63-.07-.95-.11-1.62-.11-2.64,0-4.47,1.58-4.47,5.67v6.55h-5.39v-16.97Z"/>
      <path class="cls-2" d="M1280.53,97.11h-12.53c.11,2.22,1.58,3.49,3.98,3.49,1.65,0,2.71-.53,3.17-1.58h5.28c-.53,3.34-3.94,5.63-8.45,5.63-5.77,0-9.33-3.34-9.33-9.01s3.63-8.98,9.15-8.98,8.87,3.31,8.87,8.1c0,.92-.04,1.37-.14,2.36ZM1275.35,93.77c-.04-2.25-1.3-3.52-3.59-3.52s-3.73,1.44-3.77,3.52h7.36Z"/>
      <path class="cls-2" d="M1290.25,85.43v1.73h3.94v4.26h-3.94v12.71h-5.39v-12.71h-3.03v-4.26h3.03v-1.65c0-5.21,3.7-6.34,6.23-6.34,1.44,0,2.43.18,3.1.39v3.84c-.56-.04-.99-.11-1.48-.11-1.16,0-2.46.28-2.46,2.15Z"/>
      <path class="cls-2" d="M1296.09,97.64v-10.49h5.46v9.29c0,2.32.77,3.59,2.82,3.59,2.29,0,3.27-1.48,3.27-3.77v-9.12h5.35v16.97h-5.35v-2.43c-.95,1.79-2.71,2.89-5.28,2.89-4.08,0-6.27-2.53-6.27-6.93Z"/>
      <path class="cls-2" d="M1315.66,99.01h5.35c0,1.16,1.13,2.01,2.78,2.01,1.16,0,1.97-.6,1.97-1.58,0-.67-.32-1.23-1.23-1.44l-4.15-1.06c-2.82-.7-4.26-2.46-4.26-4.89,0-3.17,2.78-5.39,7.25-5.39,4.96,0,7.57,2.08,7.57,5.28h-5.32c0-1.2-.88-1.87-2.32-1.87-1.16,0-1.94.56-1.94,1.41,0,.77.53,1.27,1.44,1.51l4.01,1.09c2.61.7,4.29,2.29,4.29,4.72,0,3.48-2.78,5.84-7.43,5.84-4.96,0-8.03-2.43-8.03-5.63Z"/>
      <path class="cls-2" d="M1350.67,97.11h-12.53c.11,2.22,1.58,3.49,3.98,3.49,1.65,0,2.71-.53,3.17-1.58h5.28c-.53,3.34-3.94,5.63-8.45,5.63-5.77,0-9.33-3.34-9.33-9.01s3.63-8.98,9.15-8.98,8.87,3.31,8.87,8.1c0,.92-.04,1.37-.14,2.36ZM1345.49,93.77c-.04-2.25-1.3-3.52-3.59-3.52s-3.73,1.44-3.77,3.52h7.36Z"/>
      <path class="cls-2" d="M1011.52,133.82v4.29c-.77.14-2.04.28-3.59.28-2.54,0-6.02-.56-6.02-6.23v-6.76h-2.67v-4.26h2.67v-5.03h5.39v5.03h3.84v4.26h-3.84v5.63c0,2.5,1.02,2.89,2.36,2.89.67,0,1.37-.04,1.87-.11Z"/>
      <path class="cls-2" d="M1012.73,129.64c0-5.17,3.59-8.98,9.43-8.98s9.4,3.8,9.4,8.98-3.59,9.01-9.4,9.01-9.43-3.84-9.43-9.01ZM1026.21,129.64c0-2.57-1.51-4.44-4.05-4.44s-4.05,1.87-4.05,4.44,1.48,4.44,4.05,4.44,4.05-1.87,4.05-4.44Z"/>
      <path class="cls-2" d="M1061.94,129.64c0,5.32-3.27,8.94-7.96,8.94-2.5,0-4.54-1.27-5.39-2.85v9.43h-5.39v-24.01h5.39v2.43c.88-1.62,2.99-2.89,5.53-2.89,4.65,0,7.82,3.59,7.82,8.94ZM1056.45,129.64c0-2.6-1.66-4.44-4.01-4.44s-4.08,1.79-4.08,4.44,1.69,4.47,4.08,4.47,4.01-1.83,4.01-4.47Z"/>
      <path class="cls-2" d="M1064.01,116.36c0-1.83,1.37-3.31,3.31-3.31s3.34,1.48,3.34,3.31-1.41,3.27-3.34,3.27-3.31-1.48-3.31-3.27ZM1064.61,121.15h5.39v16.97h-5.39v-16.97Z"/>
      <path class="cls-2" d="M1072.5,129.64c0-5.35,3.49-8.98,9.08-8.98,5.07,0,8.38,2.71,8.8,6.93h-5.39c-.39-1.58-1.41-2.39-3.38-2.39-2.32,0-3.73,1.62-3.73,4.44s1.41,4.44,3.73,4.44c1.97,0,2.99-.77,3.38-2.25h5.39c-.42,4.12-3.73,6.83-8.8,6.83-5.6,0-9.08-3.66-9.08-9.01Z"/>
      <path class="cls-2" d="M1103.76,138.12l-5.39-7.36v7.36h-5.39v-24.64h5.39v14.75l5.53-7.08h6.34l-6.76,8.03,6.86,8.94h-6.58Z"/>
      <path class="cls-2" d="M1119.21,145.02v-4.15c.46.11.81.14,1.3.14.92,0,1.37-.49,1.37-1.62v-18.23h5.39v18.9c0,3.56-1.97,5.32-5.49,5.32-1.16,0-1.83-.11-2.57-.35ZM1121.29,116.36c0-1.83,1.37-3.31,3.31-3.31s3.34,1.48,3.34,3.31-1.41,3.27-3.34,3.27-3.31-1.48-3.31-3.27Z"/>
      <path class="cls-2" d="M1130.75,131.64v-10.49h5.46v9.29c0,2.32.77,3.59,2.82,3.59,2.29,0,3.27-1.48,3.27-3.77v-9.12h5.35v16.97h-5.35v-2.43c-.95,1.79-2.71,2.89-5.28,2.89-4.08,0-6.27-2.53-6.27-6.93Z"/>
      <path class="cls-2" d="M1150.33,133.01h5.35c0,1.16,1.13,2.01,2.78,2.01,1.16,0,1.97-.6,1.97-1.58,0-.67-.32-1.23-1.23-1.44l-4.15-1.06c-2.82-.7-4.26-2.46-4.26-4.89,0-3.17,2.78-5.39,7.25-5.39,4.96,0,7.57,2.08,7.57,5.28h-5.32c0-1.2-.88-1.87-2.32-1.87-1.16,0-1.94.56-1.94,1.41,0,.77.53,1.27,1.44,1.51l4.01,1.09c2.61.7,4.29,2.29,4.29,4.72,0,3.48-2.78,5.84-7.43,5.84-4.96,0-8.03-2.43-8.03-5.63Z"/>
      <path class="cls-2" d="M1179.56,133.82v4.29c-.77.14-2.04.28-3.59.28-2.54,0-6.02-.56-6.02-6.23v-6.76h-2.67v-4.26h2.67v-5.03h5.39v5.03h3.84v4.26h-3.84v5.63c0,2.5,1.02,2.89,2.36,2.89.67,0,1.37-.04,1.87-.11Z"/>
      <path class="cls-2" d="M1189.87,129.64c0-5.17,3.59-8.98,9.43-8.98s9.4,3.8,9.4,8.98-3.59,9.01-9.4,9.01-9.43-3.84-9.43-9.01ZM1203.35,129.64c0-2.57-1.51-4.44-4.05-4.44s-4.05,1.87-4.05,4.44,1.48,4.44,4.05,4.44,4.05-1.87,4.05-4.44Z"/>
      <path class="cls-2" d="M1211.31,121.15h5.39v2.46c.99-1.9,2.92-2.92,5.49-2.92,4.12,0,6.2,2.32,6.2,6.93v10.49h-5.42v-8.73c0-2.85-.81-4.15-2.99-4.15s-3.27,1.41-3.27,4.01v8.87h-5.39v-16.97Z"/>
      <path class="cls-2" d="M1248.8,131.11h-12.53c.11,2.22,1.58,3.49,3.98,3.49,1.65,0,2.71-.53,3.17-1.58h5.28c-.53,3.34-3.94,5.63-8.45,5.63-5.77,0-9.33-3.34-9.33-9.01s3.63-8.98,9.15-8.98,8.87,3.31,8.87,8.1c0,.92-.04,1.37-.14,2.36ZM1243.63,127.77c-.04-2.25-1.3-3.52-3.59-3.52s-3.73,1.44-3.77,3.52h7.36Z"/>
      <path class="cls-2" d="M1271.37,133.82v4.29c-.77.14-2.04.28-3.59.28-2.54,0-6.02-.56-6.02-6.23v-6.76h-2.68v-4.26h2.68v-5.03h5.39v5.03h3.84v4.26h-3.84v5.63c0,2.5,1.02,2.89,2.36,2.89.67,0,1.37-.04,1.87-.11Z"/>
      <path class="cls-2" d="M1291.09,127.63v10.49h-5.42v-8.73c0-2.85-.81-4.15-2.99-4.15s-3.27,1.41-3.27,4.01v8.87h-5.39v-24.64h5.39v10.14c.99-1.9,2.92-2.92,5.49-2.92,4.12,0,6.2,2.32,6.2,6.93Z"/>
      <path class="cls-2" d="M1294.1,116.36c0-1.83,1.37-3.31,3.31-3.31s3.34,1.48,3.34,3.31-1.41,3.27-3.34,3.27-3.31-1.48-3.31-3.27ZM1294.7,121.15h5.39v16.97h-5.39v-16.97Z"/>
      <path class="cls-2" d="M1303.81,121.15h5.39v2.46c.99-1.9,2.92-2.92,5.49-2.92,4.12,0,6.2,2.32,6.2,6.93v10.49h-5.42v-8.73c0-2.85-.81-4.15-2.99-4.15s-3.27,1.41-3.27,4.01v8.87h-5.39v-16.97Z"/>
      <path class="cls-2" d="M1342.17,121.15v15.81c0,3.34-1.2,5.77-3.27,7.22-1.55,1.09-3.63,1.51-6.05,1.51s-4.47-.39-6.12-1.37c-1.73-1.06-2.96-2.89-3.03-4.72h5.49c.25,1.34,1.41,2.15,3.59,2.15,2.5,0,4.01-1.09,4.01-4.12v-2.25c-.84,1.69-3.1,2.75-5.32,2.75-5.03,0-8.06-3.66-8.06-8.66s3.24-8.77,8.13-8.77c2.32,0,4.4,1.13,5.25,2.89v-2.43h5.39ZM1337.04,129.53c0-2.46-1.51-4.44-4.08-4.44-2.43,0-4.01,1.87-4.01,4.44s1.58,4.44,4.01,4.44c2.57,0,4.08-1.97,4.08-4.44Z"/>
      <path class="cls-2" d="M1345.62,135.02c0-1.9,1.51-3.45,3.48-3.45s3.49,1.55,3.49,3.45-1.51,3.45-3.49,3.45-3.48-1.58-3.48-3.45Z"/>
    </g>
  </g>
</svg>