<?xml version="1.0" encoding="UTF-8"?>
<svg id="Layer_2" data-name="Layer 2" xmlns="http://www.w3.org/2000/svg" viewBox="0 0 1456 180">
  <defs>
    <style>
      .cls-1 {
        fill: none;
      }

      .cls-2 {
        fill: #fff;
      }
    </style>
  </defs>
  <g id="Logo_Copy" data-name="Logo &amp;amp; Copy">
    <g id="Background">
      <rect class="cls-1" width="1456" height="180"/>
    </g>
    <g>
      <path class="cls-2" d="M355.39,71.05h7.27l7.19,19.88,7.19-19.88h7.11v28h-5.99v-18.16l-5.99,18.16h-4.64l-6.15-18.28v18.28h-5.99v-28Z"/>
      <path class="cls-2" d="M404.3,95.64h-9.59l-.93,3.4h-6.61l9.16-28h6.3l9.2,28h-6.61l-.93-3.4ZM402.91,90.56l-3.4-12.44-3.4,12.44h6.81Z"/>
      <path class="cls-2" d="M431.01,90.16l4.76,8.88h-7.12l-4.25-7.76h-3.29v7.76h-6.26v-28h11.52c5.65,0,9.71,4.24,9.71,10.12,0,4.08-1.97,7.4-5.06,9ZM421.11,86h4.29c2.51,0,4.33-2.04,4.33-4.84s-1.82-4.84-4.33-4.84h-4.29v9.68Z"/>
      <path class="cls-2" d="M451.96,84.92l10.63,14.12h-7.46l-8.89-12.36v12.36h-6.26v-28h6.26v12.44l8.93-12.44h7.42l-10.63,13.88Z"/>
      <path class="cls-2" d="M465.53,71.05h16.55v5.2h-10.28v6.36h10.28v5.08h-10.28v6.16h10.28v5.2h-16.55v-28Z"/>
      <path class="cls-2" d="M492.01,76.81h-7.42v-5.76h21.11v5.76h-7.46v22.24h-6.23v-22.24Z"/>
      <path class="cls-2" d="M508.52,71.05h16.55v5.2h-10.29v6.36h10.29v5.08h-10.29v6.16h10.29v5.2h-16.55v-28Z"/>
      <path class="cls-2" d="M546.18,90.16l4.76,8.88h-7.12l-4.25-7.76h-3.29v7.76h-6.26v-28h11.52c5.65,0,9.71,4.24,9.71,10.12,0,4.08-1.97,7.4-5.06,9ZM536.28,86h4.29c2.51,0,4.33-2.04,4.33-4.84s-1.82-4.84-4.33-4.84h-4.29v9.68Z"/>
    </g>
  </g>
</svg>