<?xml version="1.0" encoding="UTF-8"?>
<svg id="Layer_2" data-name="Layer 2" xmlns="http://www.w3.org/2000/svg" viewBox="0 0 610.19 97.04">
  <defs>
    <style>
      .cls-1 {
        fill: #f74552;
      }

      .cls-2 {
        fill: #fff;
      }
    </style>
  </defs>
  <g id="Top_Banner" data-name="Top Banner">
    <g>
      <path class="cls-2" d="M36.93,68.94h-16.01l-1.82,8.37H.55L18.65,13.64h20.46l18.19,63.67h-18.56l-1.82-8.37ZM34.2,55.93l-5.28-24.83-5.28,24.83h10.55Z"/>
      <path class="cls-2" d="M62.85,13.64h22.83c17.92,0,28.74,12.46,28.74,31.84s-10.92,31.84-29.11,31.84h-22.47V13.64ZM84.95,62.39c6.64,0,10.82-5.18,10.82-16.92s-4.18-16.92-10.82-16.92h-3.91v33.84h3.91Z"/>
      <path class="cls-2" d="M120.6,13.64h22.83c17.92,0,28.74,12.46,28.74,31.84s-10.92,31.84-29.11,31.84h-22.47V13.64ZM142.7,62.39c6.64,0,10.82-5.18,10.82-16.92s-4.18-16.92-10.82-16.92h-3.91v33.84h3.91Z"/>
      <path class="cls-2" d="M245.84,13.64l-25.92,63.67h-19.74l8.28-20.1-16.19-43.57h19.37l7.09,27.01,7.73-27.01h19.37Z"/>
      <path class="cls-2" d="M247.11,45.47c0-21.65,10.55-33.84,29.11-33.84s29.11,12.19,29.11,33.84-10.55,33.84-29.11,33.84-29.11-12.19-29.11-33.84ZM286.41,45.47c0-11.55-3.37-17.46-10.19-17.46s-10.19,5.91-10.19,17.46,3.37,17.46,10.19,17.46,10.19-5.91,10.19-17.46Z"/>
      <path class="cls-2" d="M310.87,55.57V13.64h18.28v41.66c0,5.18,2.36,8.19,6.18,8.19s6.19-3,6.19-8.19V13.64h18.28v41.93c0,15.1-8.91,23.47-24.47,23.47s-24.47-8.46-24.47-23.47Z"/>
      <path class="cls-2" d="M390.18,61.57h-3.73v15.74h-18.19V13.64h23.29c15.37,0,24.74,9.19,24.74,23.92,0,8.28-3.27,15.1-9,19.28l9.28,20.47h-19.56l-6.82-15.74ZM386.45,48.66h3c5.46,0,8.37-4,8.37-11.1s-3-11.01-8.28-11.01h-3.09v22.1Z"/>
      <path class="cls-1" d="M473.85,68.94h-16.01l-1.82,8.37h-18.56l18.1-63.67h20.46l18.19,63.67h-18.56l-1.82-8.37ZM471.13,55.93l-5.28-24.83-5.28,24.83h10.55Z"/>
      <path class="cls-1" d="M499.77,13.64h16.46l15.46,34.38V13.64h16.64v63.67h-16.46l-15.37-33.65v33.65h-16.74V13.64Z"/>
      <path class="cls-1" d="M557.43,13.64h22.83c17.92,0,28.74,12.46,28.74,31.84s-10.92,31.84-29.11,31.84h-22.47V13.64ZM579.54,62.39c6.64,0,10.82-5.18,10.82-16.92s-4.18-16.92-10.82-16.92h-3.91v33.84h3.91Z"/>
    </g>
  </g>
</svg>